<?xml version="1.0" standalone="no"?>
<!DOCTYPE svg PUBLIC "-//W3C//DTD SVG 20010904//EN"
 "http://www.w3.org/TR/2001/REC-SVG-20010904/DTD/svg10.dtd">
<svg version="1.0" xmlns="http://www.w3.org/2000/svg"
 width="460.000000pt" height="460.000000pt" viewBox="0 0 460.000000 460.000000"
 preserveAspectRatio="xMidYMid meet">
<metadata>
Created by potrace 1.14, written by Peter Selinger 2001-2017
</metadata>
<g transform="translate(0.000000,460.000000) scale(0.100000,-0.100000)"
fill="#000000" stroke="none">
<path d="M3631 3767 c-6 -7 -26 -13 -46 -12 -19 1 -35 -1 -35 -5 0 -6 -16 -10
-53 -11 -9 0 -15 -3 -13 -7 2 -4 -20 -19 -50 -32 -30 -14 -54 -29 -54 -34 0
-5 -16 -22 -35 -39 -19 -16 -35 -36 -35 -44 0 -7 -7 -16 -15 -19 -8 -4 -13 -9
-11 -13 3 -4 -5 -13 -17 -20 -12 -8 -19 -10 -15 -6 7 7 -61 46 -84 49 -3 1
-10 4 -14 9 -4 4 -16 7 -26 7 -10 0 -18 5 -18 10 0 6 -14 10 -31 10 -17 0 -28
4 -24 10 4 6 -5 10 -20 10 -16 0 -24 4 -19 11 4 7 -1 7 -16 -1 -15 -8 -20 -8
-16 -1 5 7 -3 11 -19 11 -15 0 -24 4 -20 10 4 6 -3 9 -17 6 -13 -1 -32 3 -43
9 -11 7 -29 11 -40 9 -10 -1 -24 1 -30 6 -5 4 -23 11 -40 14 -16 3 -48 9 -70
14 -22 4 -52 8 -67 7 -15 -1 -25 2 -21 7 3 6 -8 9 -23 8 -16 -1 -32 -1 -36 0
-21 7 -34 5 -47 -4 -12 -9 -13 -7 -8 7 5 14 3 16 -11 10 -15 -7 -49 -9 -62 -3
-15 6 -227 5 -241 -1 -9 -5 -21 -3 -27 3 -7 7 -12 8 -12 2 0 -5 -24 -10 -53
-11 -53 -2 -132 -9 -132 -13 0 -2 -38 -7 -82 -11 -17 -2 -29 -7 -27 -11 4 -7
-53 -13 -78 -9 -5 0 -8 -3 -8 -8 0 -5 -8 -8 -17 -7 -17 3 -26 0 -74 -25 -17
-8 -20 -8 -14 3 6 10 5 11 -6 1 -7 -7 -21 -13 -31 -13 -10 0 -26 -4 -36 -9
-45 -24 -87 -39 -94 -35 -4 3 -8 0 -8 -6 0 -6 -4 -8 -10 -5 -5 3 -10 1 -10 -5
0 -6 -4 -9 -9 -5 -5 3 -13 0 -16 -6 -4 -5 -14 -8 -22 -5 -8 3 -11 1 -8 -4 3
-6 -2 -10 -12 -10 -10 0 -29 -9 -42 -19 -20 -16 -27 -17 -38 -6 -7 8 -13 18
-13 23 0 5 -18 29 -40 52 -22 23 -40 47 -40 52 0 5 -4 7 -9 3 -5 -3 -16 3 -23
12 -7 10 -20 19 -28 21 -8 2 -16 8 -18 13 -2 5 -13 9 -23 9 -11 0 -18 4 -15 8
2 4 -7 9 -21 10 -14 1 -31 6 -37 11 -6 4 -26 7 -43 6 -18 -1 -33 3 -33 8 0 5
-6 4 -14 -2 -9 -7 -17 -8 -20 -2 -7 11 -25 9 -45 -3 -10 -7 -12 -5 -6 3 6 10
3 11 -14 2 -11 -7 -21 -8 -21 -4 0 4 -5 2 -12 -5 -16 -16 -31 -16 -22 0 4 7
-6 2 -23 -10 -17 -12 -38 -22 -47 -22 -9 0 -16 -5 -16 -11 0 -5 -4 -8 -9 -4
-5 3 -21 -6 -34 -19 -14 -14 -28 -22 -31 -19 -3 4 -6 1 -6 -5 0 -7 -8 -12 -17
-13 -10 0 -13 -3 -6 -6 10 -3 10 -7 0 -18 -7 -7 -15 -11 -19 -8 -5 2 -8 -3 -8
-11 0 -8 -9 -22 -21 -30 -12 -8 -18 -19 -14 -25 3 -6 1 -11 -4 -11 -6 0 -11
-7 -11 -15 0 -8 -4 -15 -8 -15 -5 0 -9 -7 -10 -15 -1 -8 -3 -22 -4 -30 -1 -8
-5 -15 -10 -15 -4 0 -8 -18 -8 -41 0 -24 -4 -38 -10 -34 -7 4 -7 -2 -1 -18 6
-14 7 -28 4 -31 -3 -3 0 -12 6 -20 7 -9 8 -16 2 -20 -6 -4 -6 -18 -1 -38 5
-17 7 -35 3 -41 -3 -6 -1 -7 5 -3 8 5 12 -2 12 -19 0 -17 4 -24 12 -19 7 5 8
3 3 -6 -5 -8 -2 -18 9 -26 10 -7 17 -15 17 -18 -3 -20 2 -28 27 -53 15 -15 25
-32 24 -38 -2 -5 -1 -7 3 -3 4 4 16 -2 28 -12 17 -17 18 -21 6 -37 -12 -15
-12 -16 1 -8 8 5 3 -4 -12 -20 -16 -15 -28 -33 -28 -40 0 -7 -7 -16 -16 -19
-9 -4 -14 -9 -11 -12 3 -4 -5 -23 -18 -43 -14 -19 -25 -41 -25 -47 0 -7 -4
-14 -9 -16 -5 -1 -11 -10 -13 -18 -2 -8 -7 -18 -11 -21 -4 -3 -9 -16 -10 -27
-1 -12 -5 -22 -9 -22 -4 0 -8 -9 -8 -21 0 -13 -4 -18 -12 -13 -7 4 -10 4 -6
-1 4 -4 2 -15 -5 -23 -10 -13 -9 -14 3 -7 12 7 12 5 -1 -11 -9 -10 -15 -27
-14 -37 2 -9 -1 -15 -6 -11 -5 3 -9 -9 -9 -25 0 -17 -5 -31 -12 -31 -6 0 -9
-3 -6 -6 4 -3 2 -20 -4 -37 -5 -18 -12 -48 -15 -67 -3 -19 -10 -38 -17 -42 -7
-5 -6 -8 4 -8 10 0 11 -3 4 -8 -6 -4 -10 -19 -8 -35 1 -15 0 -25 -4 -23 -8 4
-8 -7 -11 -169 -1 -60 0 -122 2 -137 3 -16 0 -28 -7 -28 -6 0 -3 -5 7 -11 14
-8 16 -14 6 -25 -6 -8 -7 -14 -2 -14 5 0 9 -16 8 -35 -1 -20 3 -35 9 -35 6 0
4 -5 -4 -10 -10 -6 -11 -10 -2 -10 7 0 12 -14 12 -36 0 -19 3 -33 8 -31 4 3 8
-14 9 -36 1 -23 7 -43 12 -45 6 -2 11 -17 11 -33 0 -16 5 -29 10 -29 6 0 10
-11 10 -25 0 -14 5 -25 12 -25 6 0 8 -3 5 -7 -4 -3 -2 -12 4 -20 6 -7 9 -13 5
-13 -4 0 4 -19 16 -42 12 -24 21 -46 20 -50 -1 -5 3 -8 9 -8 5 0 8 -4 4 -9 -3
-5 2 -16 10 -25 9 -8 21 -29 26 -46 6 -17 16 -27 22 -23 5 3 7 1 3 -5 -3 -6 1
-17 9 -25 8 -9 15 -20 15 -26 0 -6 5 -11 10 -11 6 0 10 -7 10 -15 0 -8 9 -20
19 -27 10 -6 17 -18 14 -25 -3 -8 2 -13 13 -13 9 0 14 -3 11 -6 -4 -4 3 -15
15 -25 11 -11 18 -19 13 -19 -4 0 7 -13 24 -29 17 -16 31 -34 31 -41 0 -6 5
-8 10 -5 6 3 10 2 10 -3 0 -15 36 -52 50 -52 7 0 11 -3 7 -6 -6 -6 16 -34 26
-34 3 0 24 -18 46 -40 23 -23 41 -39 41 -36 0 3 14 -8 32 -24 17 -16 36 -26
41 -23 6 3 8 2 5 -3 -7 -11 17 -35 26 -27 3 3 8 -2 12 -11 3 -9 10 -13 15 -10
5 3 12 -2 15 -10 3 -9 10 -13 15 -10 5 3 9 0 9 -5 0 -6 7 -11 16 -11 8 0 12
-5 9 -10 -4 -6 -3 -10 2 -9 19 3 46 -2 40 -7 -7 -7 60 -44 80 -44 7 0 13 -4
13 -10 0 -5 7 -10 16 -10 8 0 13 -4 10 -8 -2 -4 5 -9 17 -9 12 -1 23 -7 25
-13 2 -5 12 -10 23 -10 10 0 19 -5 19 -11 0 -5 4 -8 9 -4 5 3 15 0 23 -7 7 -7
18 -13 23 -14 33 -3 74 -18 69 -25 -3 -5 -2 -9 3 -8 27 5 53 -2 47 -13 -5 -7
-2 -9 8 -5 9 3 26 0 40 -7 13 -7 29 -11 35 -9 6 2 14 -1 18 -6 3 -6 19 -11 36
-11 16 0 29 -5 29 -12 0 -10 3 -9 9 1 6 9 11 10 15 2 4 -6 20 -11 37 -11 16 0
29 -5 29 -12 0 -9 4 -8 10 2 6 10 10 11 10 3 0 -8 14 -13 36 -13 19 0 45 -5
56 -11 15 -8 19 -8 14 0 -4 6 -2 11 3 11 6 0 11 -4 11 -10 0 -5 15 -9 33 -10
36 0 109 -6 117 -10 12 -6 36 -5 52 2 9 5 19 5 22 0 6 -10 218 -8 236 3 9 6
11 4 5 -4 -6 -10 -3 -11 13 -2 11 6 34 9 51 7 17 -2 31 0 31 5 0 5 6 6 14 3 8
-3 24 0 36 6 15 8 20 8 16 1 -4 -6 -3 -11 3 -11 5 0 12 4 15 8 2 4 24 9 48 11
23 1 46 7 50 14 6 9 8 8 8 -3 0 -10 3 -11 8 -4 4 7 25 15 47 18 22 4 50 9 63
11 13 2 29 9 37 15 8 7 24 10 35 7 11 -3 18 -1 14 4 -5 8 24 14 55 10 7 -2 10
2 6 8 -3 6 1 11 10 11 15 0 26 4 74 29 17 9 21 9 16 1 -6 -9 -2 -9 14 -1 11 7
21 16 21 21 0 5 9 7 20 5 11 -2 20 0 20 4 0 5 11 12 24 15 14 3 32 13 40 22 9
8 16 11 16 5 0 -6 9 -3 20 7 12 9 23 15 27 14 3 -2 9 1 12 6 3 6 13 12 21 14
8 2 21 9 28 16 8 7 18 9 24 6 6 -4 8 -2 5 3 -4 6 1 17 10 24 14 12 16 12 8 -1
-8 -13 -7 -13 11 0 10 8 21 18 24 21 3 4 22 15 42 26 21 11 35 23 31 27 -3 3
1 6 11 6 10 0 14 5 10 12 -4 7 -3 8 4 4 6 -4 19 2 29 14 10 11 23 20 31 20 7
0 10 4 7 10 -3 5 -1 10 4 10 6 0 29 17 51 39 22 21 42 36 45 33 3 -4 8 4 12
16 3 12 11 22 18 22 8 0 17 9 20 20 4 11 11 18 16 15 5 -4 9 -3 9 2 0 4 18 27
40 51 22 23 38 42 35 42 -3 0 5 11 18 24 13 13 34 40 46 60 13 20 28 36 34 36
7 0 6 4 -3 10 -13 8 -12 10 3 10 10 0 15 5 12 10 -3 6 -1 10 4 10 6 0 11 7 11
15 0 8 5 15 12 15 6 0 8 3 5 7 -4 3 2 16 13 28 12 13 22 32 23 43 0 11 5 18 9
16 4 -3 9 0 9 5 2 17 4 23 29 76 13 28 23 56 23 63 0 6 4 12 9 12 4 0 8 12 8
26 0 14 4 23 10 19 6 -4 10 8 10 29 0 20 4 36 8 36 7 0 12 21 16 67 0 11 5 19
9 16 5 -3 8 1 6 8 -4 32 2 60 11 54 6 -3 10 -1 10 4 0 6 -5 11 -11 11 -8 0 -8
4 -2 13 5 6 9 35 9 63 -1 40 2 50 13 46 10 -4 11 -1 3 15 -6 11 -9 23 -6 26
12 12 6 231 -6 235 -7 3 -4 9 7 17 16 12 16 14 2 20 -10 4 -15 14 -12 25 3 10
-1 28 -7 40 -7 12 -8 20 -3 17 5 -4 10 0 10 8 0 8 -3 12 -7 10 -4 -2 -8 8 -9
23 -3 50 -7 72 -14 78 -4 4 -7 18 -7 31 0 12 -4 23 -10 23 -5 0 -10 14 -10 31
0 16 -4 28 -9 24 -6 -3 -8 4 -6 15 2 11 -2 25 -8 32 -7 7 -14 22 -15 33 -2 11
-11 29 -20 39 -12 14 -13 17 -3 11 8 -5 4 7 -9 26 -14 19 -23 34 -21 34 1 0
-5 17 -15 38 -10 20 -22 37 -26 37 -5 0 -7 4 -3 9 3 5 -2 16 -10 24 -8 9 -15
20 -15 26 0 6 -4 11 -10 11 -5 0 -10 6 -10 14 0 7 -12 26 -27 41 -16 16 -21
25 -13 20 13 -8 13 -7 0 9 -13 16 -12 20 5 32 10 8 24 14 29 14 6 0 4 5 -4 10
-10 6 -11 10 -2 10 14 0 51 35 54 52 2 7 11 21 20 31 9 11 14 26 11 35 -4 10
-2 13 5 8 8 -5 12 3 12 23 0 17 4 31 8 31 13 0 18 78 12 188 -1 23 -5 42 -9
42 -4 0 -8 12 -9 26 -1 15 -10 33 -20 40 -9 7 -13 14 -8 14 5 0 3 7 -4 15 -6
8 -8 20 -4 27 4 7 4 10 -1 6 -8 -7 -35 14 -35 29 -1 4 -15 19 -31 33 -17 14
-40 33 -51 43 -12 9 -27 17 -35 17 -8 0 -11 5 -8 10 4 6 -5 10 -20 10 -17 0
-24 4 -19 12 4 6 3 8 -3 5 -5 -3 -22 0 -37 8 -18 10 -24 10 -19 2 4 -7 0 -7
-10 2 -9 7 -17 11 -17 7 0 -3 -11 -1 -25 4 -13 5 -27 5 -30 1 -3 -5 -14 -7
-25 -4 -11 3 -17 9 -14 14 8 14 -2 11 -15 -4z"/>
</g>
</svg>
